# xmcd
#
# Track frame offsets:
#	150
#	12825
#	28087
#	46312
#	61152
#	82800
#	102112
#	115012
#	141337
#	162712
#	177000
#
# Disc length: 2743 seconds
# Revision: 1
# Processed by: cddbd v1.5.2PL0 Copyright (c) Steve Scherf et al.
# Submitted via: dBpowerAMP V12.0
#
DISCID=840ab50b
DTITLE=Toni Lynn Washington - Blues at Midnight
DYEAR=1995
DGENRE=Blues
TTITLE0=Don't Let it End
TTITLE1=Bad Intentions
TTITLE2=Evening
TTITLE3=Ain't That Loving You
TTITLE4=Driving Wheel
TTITLE5=No Good Man
TTITLE6=Knock Once
TTITLE7=Blues Thing
TTITLE8=Goodbye
TTITLE9=Ask me no Questions
TTITLE10=Blues at Midnight
EXTD=
EXTT0=
EXTT1=
EXTT2=
EXTT3=
EXTT4=
EXTT5=
EXTT6=
EXTT7=
EXTT8=
EXTT9=
EXTT10=
PLAYORDER=
